<svg width="164" height="164" viewBox="0 0 164 164" fill="none" xmlns="http://www.w3.org/2000/svg">
<rect x="1" y="1" width="162" height="162" rx="6" fill="#EB5757" fill-opacity="0.1"/>
<path d="M112.85 69.3344H110.984V36.696C110.984 33.8309 108.653 31.5 105.788 31.5H79.6619C76.798 31.5 74.4679 33.8309 74.4679 36.696V45.7017H57.4139C54.5494 45.7017 52.2189 48.0322 52.2189 50.8967V69.3344H51.1507C45.7275 69.3344 41.3154 73.7466 41.3154 79.1698V110.151C41.3154 114.175 43.725 117.753 47.4545 119.265L78.3041 131.775C79.4956 132.258 80.7478 132.5 82.0001 132.5C83.2523 132.5 84.5046 132.258 85.6964 131.775L98.4157 126.617C99.1729 126.31 99.5378 125.447 99.2306 124.69C98.9235 123.933 98.0609 123.568 97.3036 123.875L84.5845 129.033C82.9178 129.709 81.082 129.709 79.4155 129.033L48.5661 116.523C45.9589 115.466 44.274 112.965 44.274 110.151V79.1698C44.274 75.378 47.3589 72.2934 51.1505 72.2934H53.6773C53.6844 72.2934 53.6911 72.2943 53.6982 72.2943C53.7053 72.2943 53.7122 72.2934 53.7191 72.2934H112.849C116.641 72.2934 119.726 75.3782 119.726 79.1698V110.151C119.726 112.965 118.041 115.466 115.434 116.523L102.781 121.654C102.024 121.961 101.659 122.823 101.966 123.58C102.273 124.338 103.137 124.703 103.893 124.396L116.545 119.265C120.275 117.753 122.685 114.175 122.685 110.151V79.1698C122.685 73.7466 118.273 69.3344 112.85 69.3344ZM108.025 36.696V42.0054C104.165 41.3745 101.11 38.3195 100.479 34.459H105.788C107.022 34.459 108.025 35.4625 108.025 36.696ZM79.6619 34.459H84.9729C84.3422 38.3195 81.2874 41.3745 77.4267 42.0054V36.696C77.4269 35.4625 78.4294 34.459 79.6619 34.459ZM77.4269 44.9918C82.9209 44.3189 87.2866 39.953 87.9595 34.459H97.4921C98.165 39.9532 102.531 44.3191 108.025 44.992V69.3344H102.665C104.749 66.9549 105.951 63.8642 105.951 60.6172C105.951 53.3247 100.018 47.3919 92.726 47.3919C91.1142 47.3919 89.5118 47.6892 88.0139 48.2589C87.1087 46.7299 85.4432 45.7017 83.5411 45.7017H77.4269V44.9918ZM85.7771 56.2075C81.9161 55.5771 78.8608 52.5216 78.2303 48.6605H83.5411C84.774 48.6605 85.7773 49.6636 85.7773 50.8967L85.7771 56.2075ZM88.7361 64.4037C88.8714 64.4447 89.0091 64.4806 89.1508 64.5073C90.4492 64.7521 91.7142 64.3193 92.4524 63.3783C93.143 62.4977 93.634 61.2565 94.0617 60.0465C94.2619 59.4802 94.6427 59.2405 95.1958 59.333C95.6215 59.4046 96.3437 59.7713 96.3498 60.6916C96.3563 61.6554 96.3208 61.8832 95.8604 62.5871C95.413 63.2708 95.6047 64.1879 96.2884 64.6351C96.5384 64.7986 96.8193 64.8768 97.097 64.8768C97.5795 64.8768 98.0526 64.641 98.3364 64.207C98.8399 63.4375 99.091 62.8266 99.2105 62.1612H99.3303C100.147 62.1612 100.81 61.4988 100.81 60.6817C100.81 59.8646 100.147 59.2022 99.3303 59.2022H99.0427C98.5187 57.7708 97.2641 56.6806 95.6864 56.4152C93.722 56.0852 91.9478 57.1481 91.272 59.0606C90.9447 59.9863 90.5525 61.0062 90.1241 61.5524C90.0992 61.5842 89.9365 61.6446 89.6986 61.5998C89.5816 61.5777 89.191 61.4767 89.0784 61.1025C88.8038 60.1913 89.2539 59.6121 89.306 59.549C89.8268 58.9203 89.7408 57.9873 89.1123 57.4657C88.9959 57.369 88.8689 57.2933 88.7361 57.238V51.1609C89.9923 50.6318 91.3534 50.3507 92.726 50.3507C98.3869 50.3507 102.993 54.9563 102.993 60.6172C102.993 64.1627 101.145 67.4678 98.1461 69.3344H88.7361V64.4037ZM57.4139 48.6607H62.7243C62.0936 52.5218 59.0386 55.5769 55.1777 56.2077V50.8967C55.1777 49.6638 56.181 48.6607 57.4139 48.6607ZM55.1777 59.1941C60.6721 58.5212 65.0382 54.1552 65.7109 48.6605H75.2435C75.9162 54.1552 80.2825 58.5212 85.7769 59.1941V69.3344H82.5124C80.3847 64.6643 75.6738 61.5939 70.476 61.5939C69.8381 61.5939 69.2045 61.6388 68.5927 61.7276C67.7841 61.845 67.2237 62.5956 67.3409 63.4042C67.4581 64.2128 68.2085 64.773 69.0174 64.656C69.4889 64.5876 69.9795 64.553 70.4758 64.553C74.0359 64.553 77.3004 66.4089 79.1541 69.3346H61.7961C62.4453 68.3084 63.2752 67.4014 64.2551 66.6553C64.9052 66.1606 65.0311 65.2322 64.5362 64.582C64.0412 63.9317 63.1129 63.806 62.4629 64.3009C60.7179 65.6289 59.3431 67.3552 58.4412 69.3346H55.1777V59.1941Z" fill="#EB5757"/>
<path d="M49.9574 113.093L55.6491 115.401C55.8312 115.475 56.0194 115.51 56.2046 115.51C56.7891 115.51 57.3428 115.161 57.576 114.586C57.8831 113.829 57.5182 112.966 56.7609 112.659L51.0692 110.351C51.009 110.326 50.9771 110.286 50.9609 110.257C50.5672 109.541 49.6676 109.28 48.9515 109.673C48.2357 110.067 47.9743 110.966 48.368 111.683C48.7178 112.318 49.2822 112.819 49.9574 113.093Z" fill="#EB5757"/>
<path d="M82.6052 109.49L82.6052 87.169M82.6052 87.169L70.9946 96.0933M82.6052 87.169L94.2158 96.0933" stroke="#EB5757" stroke-width="6" stroke-linecap="round"/>
<path d="M71.9184 121.998L78.682 124.741C78.8641 124.815 79.0523 124.85 79.2375 124.85C79.822 124.85 80.3758 124.501 80.6089 123.926C80.9161 123.169 80.5511 122.306 79.7938 121.999L73.0302 119.257C72.2731 118.949 71.4102 119.314 71.1033 120.072C70.7964 120.829 71.1611 121.691 71.9184 121.998Z" fill="#EB5757"/>
<path d="M73.7902 78.955C74.6073 78.955 75.2697 78.2926 75.2697 77.4755C75.2697 76.6585 74.6073 75.996 73.7902 75.996H66.4916C65.6745 75.996 65.0121 76.6585 65.0121 77.4755C65.0121 78.2926 65.6745 78.955 66.4916 78.955H73.7902Z" fill="#EB5757"/>
<path d="M47.9761 99.4487C47.9761 100.266 48.6385 100.928 49.4556 100.928C50.2726 100.928 50.9351 100.266 50.9351 99.4487V92.1501C50.9351 91.333 50.2726 90.6706 49.4556 90.6706C48.6385 90.6706 47.9761 91.333 47.9761 92.1501V99.4487Z" fill="#EB5757"/>
<path d="M49.4556 82.5007C50.2727 82.5007 50.9351 81.8383 50.9351 81.0212V79.1703C50.9351 79.0535 51.0337 78.9548 51.1505 78.9548H53.9355C54.7526 78.9548 55.415 78.2924 55.415 77.4753C55.415 76.6583 54.7526 75.9958 53.9355 75.9958H51.1505C49.4002 75.9958 47.9763 77.4199 47.9763 79.1701V81.021C47.9761 81.8383 48.6385 82.5007 49.4556 82.5007Z" fill="#EB5757"/>
<path d="M114.545 97.0979C113.727 97.0979 113.065 97.7603 113.065 98.5774V105.876C113.065 106.693 113.727 107.356 114.545 107.356C115.362 107.356 116.024 106.693 116.024 105.876V98.5774C116.024 97.7603 115.362 97.0979 114.545 97.0979Z" fill="#EB5757"/>
<path d="M94.9076 119.256C95.1408 119.831 95.6945 120.18 96.279 120.18C96.464 120.18 96.6524 120.145 96.8345 120.071L103.598 117.328C104.355 117.021 104.72 116.158 104.413 115.401C104.106 114.644 103.243 114.279 102.486 114.586L95.7227 117.329C94.9654 117.636 94.6007 118.499 94.9076 119.256Z" fill="#EB5757"/>
<path d="M101.988 77.4755C101.988 76.6585 101.326 75.996 100.509 75.996H93.21C92.3929 75.996 91.7305 76.6585 91.7305 77.4755C91.7305 78.2926 92.3929 78.955 93.21 78.955H100.509C101.326 78.955 101.988 78.2926 101.988 77.4755Z" fill="#EB5757"/>
<path d="M116.024 79.1702C116.024 77.4199 114.6 75.996 112.85 75.996H110.065C109.248 75.996 108.585 76.6585 108.585 77.4755C108.585 78.2926 109.248 78.955 110.065 78.955H112.85C112.967 78.955 113.065 79.0537 113.065 79.1704V81.0214C113.065 81.8385 113.728 82.5009 114.545 82.5009C115.362 82.5009 116.024 81.8385 116.024 81.0214V79.1702H116.024Z" fill="#EB5757"/>
<rect x="1" y="1" width="162" height="162" rx="6" stroke="#EB5757" stroke-width="2"/>
</svg>
