<svg width="217" height="62" viewBox="0 0 217 62" fill="none" xmlns="http://www.w3.org/2000/svg">
<g filter="url(#filter0_d)">
<path d="M5.45325 45.8347V10.9987H17.9664C22.4485 10.9987 25.854 11.8202 28.1827 13.4631C30.5275 15.106 31.6998 17.4906 31.6998 20.6169C31.6998 22.4193 31.2851 23.9585 30.4557 25.2346C29.6263 26.5106 28.406 27.4517 26.795 28.0578C28.6134 28.5363 30.0091 29.4295 30.9821 30.7375C31.955 32.0454 32.4415 33.6405 32.4415 35.5226C32.4415 38.9361 31.3569 41.5041 29.1876 43.2267C27.0343 44.9335 23.8362 45.8028 19.5934 45.8347H5.45325ZM13.8512 31.0246V39.3747H19.3541C20.8694 39.3747 22.0338 39.0318 22.8473 38.3459C23.6608 37.6441 24.0675 36.6631 24.0675 35.403C24.0675 32.5 22.624 31.0405 19.7369 31.0246H13.8512ZM13.8512 25.5217H18.2296C20.0639 25.5057 21.3719 25.1708 22.1534 24.5168C22.935 23.8628 23.3258 22.8978 23.3258 21.6218C23.3258 20.1543 22.9031 19.1016 22.0577 18.4636C21.2124 17.8096 19.8486 17.4826 17.9664 17.4826H13.8512V25.5217ZM52.1324 43.0353C50.4257 45.2206 48.1209 46.3132 45.2179 46.3132C42.3787 46.3132 40.2254 45.4917 38.7579 43.8488C37.3064 42.19 36.5807 39.8133 36.5807 36.7189V19.947H44.6437V36.7668C44.6437 38.9839 45.7203 40.0925 47.8737 40.0925C49.7239 40.0925 51.0398 39.4305 51.8214 38.1066V19.947H59.9323V45.8347H52.3717L52.1324 43.0353ZM73.0436 19.947V46.7199C73.0276 49.7824 72.1503 52.1431 70.4117 53.8019C68.6731 55.4608 66.2487 56.2902 63.1383 56.2902C61.7985 56.2902 60.5304 56.1546 59.3341 55.8835V49.7824C60.2592 49.926 61.0169 49.9977 61.6071 49.9977C63.8401 49.9977 64.9567 48.8892 64.9567 46.6721V19.947H73.0436ZM64.3585 13.2717C64.3585 12.1232 64.7732 11.1821 65.6027 10.4484C66.4321 9.7147 67.5087 9.34784 68.8326 9.34784C70.1565 9.34784 71.2332 9.7147 72.0626 10.4484C72.892 11.1821 73.3068 12.1232 73.3068 13.2717C73.3068 14.4201 72.892 15.3612 72.0626 16.0949C71.2332 16.8286 70.1565 17.1955 68.8326 17.1955C67.5087 17.1955 66.4321 16.8286 65.6027 16.0949C64.7732 15.3612 64.3585 14.4201 64.3585 13.2717ZM90.1505 46.3132C86.1788 46.3132 82.9648 45.1328 80.5084 42.7722C78.052 40.3955 76.8239 37.3091 76.8239 33.5129V32.843C76.8239 30.1952 77.3103 27.8584 78.2833 25.8327C79.2723 23.807 80.7078 22.2438 82.59 21.1432C84.4721 20.0267 86.7052 19.4684 89.2892 19.4684C92.9259 19.4684 95.797 20.6009 97.9025 22.8659C100.008 25.1149 101.061 28.2572 101.061 32.2927V35.4269H85.0304C85.3175 36.8784 85.9476 38.0189 86.9205 38.8483C87.8935 39.6778 89.1536 40.0925 90.7008 40.0925C93.2529 40.0925 95.2467 39.1992 96.6823 37.4128L100.367 41.7673C99.3619 43.155 97.9344 44.2635 96.0841 45.093C94.2498 45.9064 92.2719 46.3132 90.1505 46.3132ZM89.2413 25.6891C86.8807 25.6891 85.477 27.2523 85.0304 30.3786H93.1652V29.7565C93.1971 28.4645 92.8701 27.4676 92.1842 26.7658C91.4983 26.048 90.5174 25.6891 89.2413 25.6891ZM113.717 13.5109V19.947H117.976V25.5456H113.717V37.3889C113.717 38.3618 113.893 39.0397 114.244 39.4225C114.595 39.8054 115.289 39.9968 116.325 39.9968C117.123 39.9968 117.793 39.9489 118.335 39.8532V45.6193C116.884 46.0819 115.368 46.3132 113.789 46.3132C111.014 46.3132 108.964 45.6592 107.64 44.3513C106.316 43.0433 105.654 41.0575 105.654 38.3937V25.5456H102.353V19.947H105.654V13.5109H113.717Z" fill="white"/>
</g>
<path d="M140.414 41.694C140.414 43.0065 140.12 44.0508 139.531 44.8268C138.948 45.6029 138.143 45.9909 137.117 45.9909C136.128 45.9909 135.357 45.6341 134.805 44.9206L134.711 45.8347H132.992V33.8347H134.891V38.194C135.438 37.5482 136.175 37.2253 137.102 37.2253C138.133 37.2253 138.943 37.6081 139.531 38.3737C140.12 39.1393 140.414 40.2097 140.414 41.5847V41.694ZM138.516 41.53C138.516 40.6133 138.354 39.9258 138.031 39.4675C137.708 39.0091 137.24 38.78 136.625 38.78C135.802 38.78 135.224 39.1393 134.891 39.8581V43.3425C135.229 44.0768 135.813 44.444 136.641 44.444C137.234 44.444 137.693 44.2227 138.016 43.78C138.339 43.3373 138.505 42.668 138.516 41.7722V41.53ZM144.875 43.1159L146.594 37.3815H148.617L145.258 47.1159C144.742 48.5378 143.867 49.2487 142.633 49.2487C142.357 49.2487 142.052 49.2018 141.719 49.1081V47.6393L142.078 47.6628C142.557 47.6628 142.917 47.5742 143.156 47.3972C143.401 47.2253 143.594 46.9336 143.734 46.5222L144.008 45.7956L141.039 37.3815H143.086L144.875 43.1159ZM156.445 34.4597L159.727 43.1784L163 34.4597H165.555V45.8347H163.586V42.0847L163.781 37.069L160.422 45.8347H159.008L155.656 37.0768L155.852 42.0847V45.8347H153.883V34.4597H156.445ZM172.141 39.1159C171.891 39.0742 171.633 39.0534 171.367 39.0534C170.498 39.0534 169.912 39.3867 169.609 40.0534V45.8347H167.711V37.3815H169.524L169.57 38.3268C170.029 37.5925 170.664 37.2253 171.477 37.2253C171.748 37.2253 171.971 37.2617 172.149 37.3347L172.141 39.1159ZM173.524 45.8347V34.4597H177.422C178.708 34.4597 179.688 34.7175 180.359 35.2331C181.031 35.7487 181.367 36.5169 181.367 37.5378C181.367 38.0586 181.227 38.5274 180.945 38.944C180.664 39.3607 180.253 39.6836 179.711 39.9128C180.326 40.0794 180.8 40.3946 181.133 40.8581C181.471 41.3164 181.641 41.8685 181.641 42.5143C181.641 43.5821 181.297 44.4024 180.609 44.9753C179.927 45.5482 178.948 45.8347 177.672 45.8347H173.524ZM175.5 40.7018V44.2565H177.695C178.315 44.2565 178.8 44.1029 179.149 43.7956C179.498 43.4883 179.672 43.0612 179.672 42.5143C179.672 41.3321 179.068 40.7279 177.859 40.7018H175.5ZM175.5 39.2487H177.438C178.052 39.2487 178.531 39.1107 178.875 38.8347C179.224 38.5534 179.399 38.1576 179.399 37.6472C179.399 37.0847 179.237 36.6784 178.914 36.4284C178.596 36.1784 178.099 36.0534 177.422 36.0534H175.5V39.2487ZM188.484 45.8347C188.401 45.6732 188.328 45.4102 188.266 45.0456C187.662 45.6758 186.922 45.9909 186.047 45.9909C185.198 45.9909 184.505 45.7487 183.969 45.2643C183.432 44.78 183.164 44.181 183.164 43.4675C183.164 42.5664 183.498 41.8763 184.164 41.3972C184.836 40.9128 185.794 40.6706 187.039 40.6706H188.203V40.1159C188.203 39.6784 188.081 39.3294 187.836 39.069C187.591 38.8034 187.219 38.6706 186.719 38.6706C186.287 38.6706 185.932 38.78 185.656 38.9987C185.38 39.2123 185.242 39.4857 185.242 39.819H183.344C183.344 39.3555 183.498 38.9232 183.805 38.5222C184.112 38.1159 184.529 37.7982 185.055 37.569C185.586 37.3399 186.177 37.2253 186.828 37.2253C187.818 37.2253 188.607 37.4753 189.195 37.9753C189.784 38.4701 190.086 39.168 190.102 40.069V43.8815C190.102 44.6419 190.208 45.2487 190.422 45.7018V45.8347H188.484ZM186.399 44.4675C186.774 44.4675 187.125 44.3763 187.453 44.194C187.787 44.0117 188.037 43.7669 188.203 43.4597V41.8659H187.18C186.477 41.8659 185.948 41.9883 185.594 42.2331C185.24 42.4779 185.063 42.8242 185.063 43.2722C185.063 43.6367 185.182 43.9284 185.422 44.1472C185.667 44.3607 185.992 44.4675 186.399 44.4675ZM193.852 37.3815L193.906 38.3581C194.531 37.6029 195.352 37.2253 196.367 37.2253C198.128 37.2253 199.024 38.2331 199.055 40.2487V45.8347H197.156V40.3581C197.156 39.8216 197.039 39.4258 196.805 39.1706C196.576 38.9102 196.198 38.78 195.672 38.78C194.906 38.78 194.336 39.1263 193.961 39.819V45.8347H192.063V37.3815H193.852ZM203.742 42.2097L202.899 43.0768V45.8347H201V33.8347H202.899V40.7565L203.492 40.0143L205.828 37.3815H208.109L204.969 40.905L208.445 45.8347H206.25L203.742 42.2097ZM214.094 43.5378C214.094 43.1992 213.953 42.9414 213.672 42.7643C213.396 42.5873 212.935 42.431 212.289 42.2956C211.643 42.1602 211.104 41.9883 210.672 41.78C209.724 41.3216 209.25 40.6576 209.25 39.7878C209.25 39.0586 209.557 38.4492 210.172 37.9597C210.787 37.4701 211.568 37.2253 212.516 37.2253C213.526 37.2253 214.341 37.4753 214.961 37.9753C215.586 38.4753 215.899 39.1237 215.899 39.9206H214C214 39.556 213.865 39.2539 213.594 39.0143C213.323 38.7696 212.964 38.6472 212.516 38.6472C212.099 38.6472 211.758 38.7435 211.492 38.9362C211.232 39.1289 211.102 39.3867 211.102 39.7097C211.102 40.0013 211.224 40.2279 211.469 40.3893C211.714 40.5508 212.208 40.7149 212.953 40.8815C213.698 41.043 214.281 41.2383 214.703 41.4675C215.13 41.6914 215.445 41.9623 215.649 42.28C215.857 42.5977 215.961 42.9831 215.961 43.4362C215.961 44.1966 215.646 44.8138 215.016 45.2878C214.386 45.7565 213.56 45.9909 212.539 45.9909C211.846 45.9909 211.229 45.8659 210.688 45.6159C210.146 45.3659 209.724 45.0222 209.422 44.5847C209.12 44.1472 208.969 43.6758 208.969 43.1706H210.813C210.839 43.6185 211.008 43.9649 211.32 44.2097C211.633 44.4492 212.047 44.569 212.563 44.569C213.063 44.569 213.443 44.4753 213.703 44.2878C213.964 44.0951 214.094 43.8451 214.094 43.5378Z" fill="white" fill-opacity="0.6"/>
<defs>
<filter id="filter0_d" x="0.453247" y="4.34784" width="122.882" height="56.9424" filterUnits="userSpaceOnUse" color-interpolation-filters="sRGB">
<feFlood flood-opacity="0" result="BackgroundImageFix"/>
<feColorMatrix in="SourceAlpha" type="matrix" values="0 0 0 0 0 0 0 0 0 0 0 0 0 0 0 0 0 0 127 0" result="hardAlpha"/>
<feOffset/>
<feGaussianBlur stdDeviation="2.5"/>
<feComposite in2="hardAlpha" operator="out"/>
<feColorMatrix type="matrix" values="0 0 0 0 0 0 0 0 0 0 0 0 0 0 0 0 0 0 0.22 0"/>
<feBlend mode="normal" in2="BackgroundImageFix" result="effect1_dropShadow"/>
<feBlend mode="normal" in="SourceGraphic" in2="effect1_dropShadow" result="shape"/>
</filter>
</defs>
</svg>
