<svg width="164" height="164" viewBox="0 0 164 164" fill="none" xmlns="http://www.w3.org/2000/svg">
<rect x="1" y="1" width="162" height="162" rx="6" fill="#2F80ED" fill-opacity="0.1"/>
<g clip-path="url(#clip0)">
<path d="M113.219 84.7399C112.448 84.7399 111.822 85.3654 111.822 86.137C111.822 87.1151 111.026 87.9109 110.048 87.9109C109.07 87.9109 108.274 87.1151 108.274 86.137C108.274 85.3652 107.649 84.7399 106.877 84.7399C106.106 84.7399 105.48 85.3654 105.48 86.137C105.48 88.6558 107.53 90.705 110.048 90.705C112.567 90.705 114.616 88.6556 114.616 86.137C114.616 85.365 113.991 84.7399 113.219 84.7399Z" fill="#2F80ED"/>
<path d="M126.333 86.1388L122.401 84.8792C121.897 84.7178 121.5 84.3158 121.339 83.8037C120.511 81.1688 119.26 78.6951 117.622 76.4511C116.876 75.4283 116.046 74.4516 115.139 73.5218C115.719 70.9768 116.034 68.0967 115.994 65.6084C115.935 62.0487 115.224 59.9609 113.819 59.2251C113.062 58.8284 110.76 57.6231 98.2973 63.328C98.0022 63.463 97.7266 63.6293 97.4714 63.8198C96.6312 63.594 95.7724 63.3852 94.9084 63.1977C94.8044 63.175 94.6971 63.1549 94.5923 63.1328C95.6022 60.9267 96.1919 58.5306 96.3027 56.0571C96.3372 55.2861 95.7404 54.6332 94.9694 54.5989C94.2004 54.5607 93.5455 55.161 93.5112 55.932C93.3291 59.9991 91.642 63.8258 88.7609 66.7071C87.0394 68.4285 85.0238 69.679 82.8756 70.4665C79.1502 69.9437 75.3556 69.9437 71.6301 70.4665C69.4818 69.679 67.4663 68.4285 65.7449 66.7071C62.671 63.6332 60.9781 59.5463 60.9781 55.1991C60.9781 50.8517 62.671 46.765 65.7449 43.6911C68.8187 40.617 72.9059 38.9241 77.2529 38.9241C81.5999 38.9241 85.687 40.617 88.7609 43.6911C89.9961 44.9264 91.0169 46.336 91.7948 47.8804C92.1419 48.5697 92.9821 48.8472 93.6711 48.4999C94.3604 48.153 94.6377 47.3129 94.2906 46.6238C93.3788 44.8127 92.1831 43.1614 90.7369 41.715C87.1352 38.1134 82.3465 36.1298 77.2531 36.1298C72.1596 36.1298 67.3709 38.1134 63.7692 41.715C60.1675 45.3169 58.1839 50.1055 58.1839 55.1989C58.1839 60.2924 60.1675 65.0811 63.7692 68.6828C64.8081 69.7217 65.9384 70.6152 67.1339 71.3637C67.1343 71.3637 67.1346 71.3635 67.135 71.3635C66.2663 71.5892 65.4042 71.8427 64.5516 72.1277C63.8198 72.3724 63.4249 73.1638 63.6696 73.8958C63.9141 74.6277 64.7059 75.0225 65.4376 74.778C73.0568 72.2309 81.4493 72.2309 89.0686 74.778C89.2156 74.8272 89.3648 74.8504 89.5116 74.8504C90.0961 74.8504 90.6409 74.4807 90.8365 73.8958C91.0812 73.164 90.6863 72.3724 89.9545 72.1277C89.1019 71.8427 88.2398 71.589 87.3711 71.3635C87.3715 71.3635 87.3719 71.3637 87.3723 71.3637C88.5679 70.6152 89.698 69.7217 90.7369 68.6828C91.6561 67.7637 92.4674 66.76 93.1718 65.6933C93.5569 65.7681 93.9393 65.8465 94.3159 65.9282C94.8177 66.0372 95.3172 66.1542 95.8122 66.277C95.7966 66.3377 95.7807 66.3983 95.7678 66.46C95.0864 69.6934 95.1306 72.5532 95.8992 74.9593C96.5899 77.1222 97.8366 78.8744 99.6042 80.1675C101.688 81.6915 104.203 82.3498 106.481 82.3498C108.196 82.3498 109.776 81.9767 110.937 81.3192C112.251 80.5753 113.351 79.008 114.222 76.6549C114.624 77.1248 115.006 77.6061 115.366 78.0989C116.824 80.0965 117.937 82.2981 118.674 84.6422C119.107 86.019 120.182 87.1024 121.549 87.5406L125.481 88.8002C126.513 89.1308 127.206 90.0805 127.206 91.1639V97.6842C127.206 98.7675 126.513 99.7172 125.481 100.048L119.146 102.077C118.132 102.402 117.274 103.099 116.73 104.039C114.241 108.34 110.328 111.9 105.098 114.619C104.494 114.933 104.076 115.496 103.95 116.162L101.921 126.906C101.865 127.202 101.605 127.417 101.304 127.417H94.7065C94.4052 127.417 94.1459 127.202 94.0898 126.906L92.9659 120.968C92.7447 119.8 91.6489 119.024 90.4696 119.203C87.6276 119.633 84.6992 119.85 81.7662 119.85C79.5841 119.85 77.4299 119.729 75.3631 119.488C74.2202 119.357 73.1556 120.136 72.9421 121.264L71.8741 126.906C71.818 127.202 71.5587 127.417 71.2574 127.417H64.6598C64.3585 127.417 64.0992 127.202 64.0424 126.902L62.0886 116.754C61.9628 116.1 61.5522 115.544 60.9614 115.229C52.0469 110.47 47.335 102.519 47.335 92.2365C47.335 87.0413 48.4716 82.4473 50.7132 78.5818C52.8049 74.9745 55.8601 71.992 59.7936 69.7167C60.4615 69.3302 60.6897 68.4756 60.3034 67.8075C59.9172 67.1397 59.0626 66.9118 58.3945 67.2977C50.7672 71.71 46.1669 78.517 44.9003 87.1626V87.1624C44.7659 87.1502 44.6313 87.1386 44.4972 87.1247C44.5216 86.1919 44.3528 85.2507 43.9853 84.3372C43.1748 82.3223 41.5097 80.868 39.7433 80.6324C38.3513 80.446 37.0266 81.037 36.1073 82.2516C34.7744 84.013 34.9917 85.4069 35.4085 86.266C36.1122 87.7159 37.921 88.7415 40.9227 89.3863C40.8402 89.5099 40.7494 89.634 40.6501 89.7587C38.8765 91.983 36.787 92.4748 35.4302 92.5212C34.636 92.548 34 93.1857 34 93.9805V93.9872C34 94.7712 34.6186 95.4105 35.4017 95.4464C35.5021 95.451 35.6069 95.4535 35.716 95.4535C37.4328 95.4535 40.1881 94.8203 42.8352 91.501C43.2531 90.9771 43.5936 90.4244 43.8554 89.8532C44.119 89.883 44.3723 89.9085 44.6149 89.931C44.6149 89.9305 44.6149 89.9301 44.6151 89.9295C44.5675 90.6867 44.5411 91.4549 44.5411 92.2365C44.5411 98.0543 45.928 103.241 48.6631 107.655C51.1849 111.723 54.7956 115.055 59.3984 117.56L61.2977 127.426C61.6032 129.04 63.0171 130.211 64.6598 130.211H71.2574C72.9001 130.211 74.314 129.04 74.6194 127.426L75.5851 122.324C77.5906 122.537 79.6669 122.644 81.766 122.644C84.646 122.644 87.5226 122.444 90.3261 122.048L91.3441 127.426C91.6497 129.04 93.0636 130.211 94.7061 130.211H101.304C102.946 130.211 104.36 129.04 104.666 127.425L106.642 116.965C112.223 114.013 116.43 110.136 119.149 105.438C119.345 105.099 119.646 104.851 119.998 104.738L126.333 102.709C128.526 102.006 130 99.9869 130 97.6838V91.1635C130 88.8606 128.526 86.8414 126.333 86.1388ZM112.99 69.5344C112.452 74.133 111.009 78.0668 109.56 78.8877C107.913 79.8209 104.109 80.001 101.254 77.9121C98.3946 75.8207 97.4431 72.0598 98.5015 67.036C98.5015 67.0358 98.5015 67.0358 98.5015 67.0358C98.6078 66.5312 98.9663 66.0947 99.4604 65.8686C106.455 62.6669 110.487 61.6197 111.986 61.6197C112.212 61.6197 112.38 61.6435 112.492 61.6873C112.942 62.167 113.532 64.8934 112.99 69.5344ZM37.9227 85.0459C37.7781 84.7478 38.1194 84.2237 38.3358 83.9376C38.6787 83.4846 38.9946 83.392 39.2333 83.392C39.2838 83.392 39.3308 83.3961 39.3739 83.4019C40.0163 83.4876 40.9163 84.1945 41.3931 85.3797C41.5054 85.6587 41.6513 86.1209 41.6854 86.6972C39.7514 86.2965 38.2487 85.7189 37.9227 85.0459Z" fill="#2F80ED" stroke="#2F80ED"/>
<path d="M81.5378 82.1979L81.5378 108.33M81.5378 108.33L67.9449 97.8819M81.5378 108.33L95.1307 97.8819" stroke="#2F80ED" stroke-width="6" stroke-linecap="round"/>
<path d="M78.6096 52.4269V47.4274C80.3337 47.5506 80.9742 48.3387 81.5652 48.3387C82.3041 48.3387 82.649 47.4029 82.649 46.9349C82.649 45.7279 80.2844 45.2108 78.6096 45.1615V44.4963C78.6096 44.2008 78.2401 43.9298 77.8707 43.9298C77.4518 43.9298 77.1563 44.2008 77.1563 44.4963V45.2105C74.8165 45.4568 72.4767 46.6883 72.4767 49.7916C72.4767 52.9443 74.9397 53.8309 77.1563 54.619V60.4069C74.644 60.2099 73.9791 58.4858 73.1663 58.4858C72.5506 58.4858 72.0334 59.2986 72.0334 59.8898C72.0334 61.0966 74.1023 62.7468 77.1563 62.7961V63.5596C77.1563 63.8551 77.452 64.126 77.8707 64.126C78.2403 64.126 78.6096 63.8551 78.6096 63.5596V62.7222C81.2697 62.3526 83.0922 60.6779 83.0922 57.6484C83.0922 54.2989 80.7524 53.215 78.6096 52.4269ZM77.3041 51.9591C75.9987 51.4666 74.9397 50.9495 74.9397 49.5456C74.9397 48.2648 75.9248 47.6491 77.3041 47.4768V51.9591ZM78.4617 60.3576V55.1609C79.6685 55.678 80.629 56.3676 80.629 57.9192C80.629 59.3234 79.7916 60.1115 78.4617 60.3576Z" fill="#2F80ED"/>
</g>
<rect x="1" y="1" width="162" height="162" rx="6" stroke="#2F80ED" stroke-width="2"/>
<defs>
<clipPath id="clip0">
<rect width="96" height="96" fill="white" transform="translate(34 34)"/>
</clipPath>
</defs>
</svg>
